<?xml version="1.0" encoding="UTF-8" standalone="no"?>
<!-- Created with Inkscape (http://www.inkscape.org/) -->

<svg
   xmlns:dc="http://purl.org/dc/elements/1.1/"
   xmlns:cc="http://creativecommons.org/ns#"
   xmlns:rdf="http://www.w3.org/1999/02/22-rdf-syntax-ns#"
   xmlns:svg="http://www.w3.org/2000/svg"
   xmlns="http://www.w3.org/2000/svg"
   xmlns:sodipodi="http://sodipodi.sourceforge.net/DTD/sodipodi-0.dtd"
   xmlns:inkscape="http://www.inkscape.org/namespaces/inkscape"
   width="210mm"
   height="297mm"
   viewBox="0 0 744.09448819 1052.3622047"
   id="svg2"
   version="1.1"
   inkscape:version="0.91 r13725"
   sodipodi:docname="retour.svg">
  <defs
     id="defs4" />
  <sodipodi:namedview
     id="base"
     pagecolor="#ffffff"
     bordercolor="#666666"
     borderopacity="1.0"
     inkscape:pageopacity="0.0"
     inkscape:pageshadow="2"
     inkscape:zoom="1.979899"
     inkscape:cx="-1116.0949"
     inkscape:cy="-353.13866"
     inkscape:document-units="px"
     inkscape:current-layer="layer1"
     showgrid="false"
     inkscape:window-width="1920"
     inkscape:window-height="1017"
     inkscape:window-x="1672"
     inkscape:window-y="-8"
     inkscape:window-maximized="1" />
  <metadata
     id="metadata7">
    <rdf:RDF>
      <cc:Work
         rdf:about="">
        <dc:format>image/svg+xml</dc:format>
        <dc:type
           rdf:resource="http://purl.org/dc/dcmitype/StillImage" />
        <dc:title />
      </cc:Work>
    </rdf:RDF>
  </metadata>
  <g
     inkscape:label="Calque 1"
     inkscape:groupmode="layer"
     id="layer1">
    <path
       style="fill:#009688;fill-opacity:1"
       d="m -1900.7949,657.22561 c -13.0613,-0.3671 -13.7873,-0.5252 -16.1741,-3.5241 -2.4762,-3.1113 -2.499,-4.1306 -2.499,-112.00796 l 0,-108.8681 82.1942,-71.90604 c 45.2067,-39.54834 83.6748,-73.05719 85.4846,-74.46413 l 3.2904,-2.55807 3.9309,3.01199 c 3.664,2.80748 37.182,31.94077 130.0507,113.03801 l 37.9929,33.17714 0.024,103.75398 c 0.013,57.06468 -0.3268,106.64438 -0.756,110.17698 -1.3139,10.8131 1.453,10.3185 -60.8408,10.8752 l -53.9295,0.4819 -0.8502,-32.9679 c -0.9497,-36.8278 -2.2332,-45.2491 -8.4591,-55.50414 -7.9406,-13.07937 -18.2419,-16.78532 -46.5769,-16.75623 -26.835,0.0275 -38.9028,3.70826 -46.1654,14.08056 -7.5217,10.74251 -9.4247,23.41831 -9.4247,62.77961 l 0,28.0814 -41.8086,-0.2579 c -22.9947,-0.1418 -47.9625,-0.4308 -55.4838,-0.6422 z m -78.9113,-229.44427 c -6.4804,-7.27447 -11.7825,-13.73236 -11.7825,-14.35087 0,-0.61849 1.0318,-1.86938 2.2928,-2.77975 1.261,-0.91035 26.6666,-23.12104 56.4569,-49.35705 119.4389,-105.18871 181.9902,-159.20288 184.3655,-159.20288 1.8773,0 6.5089,3.83826 47.8026,39.61455 83.9556,72.73792 194.9167,170.66561 194.9167,172.0219 0,1.68654 -21.5482,26.03254 -23.0409,26.03254 -1.0873,0 -29.0761,-24.15817 -135.0806,-116.59337 -38.9168,-33.93515 -73.9363,-64.28446 -77.821,-67.4429 l -7.0633,-5.74263 -3.3126,2.99652 c -1.8219,1.64809 -17.0454,14.88611 -33.8299,29.41782 -16.7845,14.53171 -63.7505,55.43049 -104.3689,90.88619 -40.6185,35.45571 -74.7294,65.19871 -75.8021,66.09558 -1.7129,1.43217 -3.3845,0.0206 -13.7327,-11.59565 z m 60.2382,-152.60433 0,-44.13162 29.9069,0 29.9069,0 -0.084,17.79501 -0.084,17.79502 -23.2201,20.5095 c -12.7711,11.28023 -26.1915,23.1317 -29.8232,26.33661 l -6.603,5.82709 0,-44.13161 z"
       id="path4147"
       inkscape:connector-curvature="0"
       inkscape:export-xdpi="92"
       inkscape:export-ydpi="92" />
    <flowRoot
       xml:space="preserve"
       id="flowRoot4149"
       style="font-style:normal;font-weight:normal;font-size:180px;line-height:125%;font-family:sans-serif;letter-spacing:0px;word-spacing:0px;fill:#009688;fill-opacity:1;stroke:none;stroke-width:1px;stroke-linecap:butt;stroke-linejoin:miter;stroke-opacity:1"
       transform="translate(0,26.853353)"
       inkscape:export-xdpi="92"
       inkscape:export-ydpi="92"><flowRegion
         id="flowRegion4151"><rect
           id="rect4153"
           width="1314.2858"
           height="314.28571"
           x="-1462.8572"
           y="289.50507"
           style="font-size:180px;fill:#009688;fill-opacity:1" /></flowRegion><flowPara
         id="flowPara4155">Retour au CV</flowPara></flowRoot>    <path
       style="fill:#009688;fill-opacity:1"
       d="m -1304.1311,1509.7551 c -23.081,-15.5375 -57.6558,-38.825 -76.833,-51.75 -29.4031,-19.377 -44.6475,-26.7561 -19.6072,-43.7433 96.1182,-64.9572 137.9199,-92.7315 140.0376,-93.0453 12.5805,0.7741 7.2947,11.2873 7.7552,32.5919 -1.1289,46.7599 13.9597,28.6487 62.7072,44.194 48.0109,17.1236 81.1828,43.2882 98.2916,77.5286 6.45,12.9086 12.1877,37.2511 12.2025,51.7696 0.01,4.8244 -0.4054,6.2067 -2.4486,8.25 -2.873,2.8729 -6.8923,3.1837 -9.1133,0.7045 -0.8623,-0.9625 -3.3995,-4.675 -5.6382,-8.25 -17.7405,-28.3298 -51.4552,-46.7748 -95.794,-52.4083 -40.6726,-1.8795 -60.1482,-4.3107 -60.2091,27.498 0.055,17.2968 5.6565,34.5772 -7.1989,34.9105 -1.2067,0 -20.9917,-12.6592 -44.1518,-28.25 z"
       id="path4149"
       inkscape:connector-curvature="0"
       sodipodi:nodetypes="ccccccscccsccccc"
       inkscape:export-xdpi="92"
       inkscape:export-ydpi="92" />
  </g>
</svg>
